<?xml version="1.0" standalone="no"?>
<!DOCTYPE svg PUBLIC "-//W3C//DTD SVG 20010904//EN"
 "http://www.w3.org/TR/2001/REC-SVG-20010904/DTD/svg10.dtd">
<svg version="1.0" xmlns="http://www.w3.org/2000/svg" viewBox="0 0 300.000000 301.000000"
 preserveAspectRatio="xMidYMid meet">
<metadata>
Created by potrace 1.10, written by Peter Selinger 2001-2011
</metadata>
<g transform="translate(0.000000,301.000000) scale(0.100000,-0.100000)"
fill="#000000" stroke="none">
<path d="M1403 2578 c-6 -28 -14 -42 -23 -40 -24 6 -114 -20 -151 -44 -52 -32
-108 -102 -120 -149 -6 -22 -20 -58 -30 -81 -10 -23 -19 -51 -19 -63 0 -25 20
-29 20 -3 1 9 6 27 13 40 l13 23 12 -25 c6 -13 20 -27 31 -31 28 -9 26 -19 -4
-33 -15 -7 -35 -33 -50 -64 -45 -93 -50 -96 -110 -72 -20 7 -20 7 -1 -14 11
-12 27 -22 38 -22 28 0 22 -16 -16 -38 -38 -22 -92 -89 -82 -100 4 -4 17 6 29
23 28 38 58 68 63 63 2 -2 -5 -22 -16 -44 -16 -32 -20 -65 -22 -183 -3 -135
-5 -146 -25 -167 -20 -20 -23 -34 -23 -91 1 -109 45 -197 116 -230 27 -13 35
-24 40 -52 11 -70 35 -119 90 -179 30 -33 70 -71 90 -83 41 -25 35 -37 -21
-42 -22 -2 -92 -16 -155 -31 -63 -15 -125 -29 -137 -32 -31 -6 -93 -62 -93
-84 0 -24 165 -119 265 -154 252 -88 527 -80 769 20 81 34 206 112 206 129 0
25 -51 75 -88 84 -159 42 -251 64 -272 66 -14 1 -37 3 -52 3 -35 2 -35 13 0
34 45 27 140 129 160 172 11 23 23 60 27 84 6 35 12 45 39 56 37 16 83 66 104
116 21 51 22 182 0 206 -12 15 -18 46 -22 134 -7 164 -19 240 -41 277 -10 18
-16 36 -11 40 4 4 10 3 14 -3 12 -17 72 -56 72 -46 0 5 -22 28 -50 51 -27 23
-50 49 -50 57 0 22 -85 102 -116 110 -16 4 -52 20 -82 36 -30 15 -61 28 -71
28 -37 1 -44 16 -17 43 14 14 26 34 26 44 -1 13 -5 11 -16 -9 -21 -40 -36 -34
-18 7 18 43 10 81 -22 102 -13 8 -24 22 -24 30 0 23 -47 63 -75 63 -15 0 -24
4 -20 10 3 6 22 10 41 10 19 0 34 5 34 10 0 15 -57 12 -91 -6 -47 -24 -62 -13
-53 41 8 58 -10 60 -23 3z m35 -90 c13 -15 23 -44 28 -77 6 -45 9 -51 16 -32
4 13 3 41 -3 67 -7 25 -9 47 -6 50 2 3 22 -3 43 -13 34 -16 39 -23 42 -55 2
-20 -2 -46 -7 -57 -8 -14 -7 -20 3 -24 17 -7 28 16 20 38 -8 21 16 19 32 -2
17 -22 18 -37 3 -27 -9 5 -10 -1 -5 -22 5 -21 4 -25 -4 -14 -6 9 -10 10 -10 3
0 -6 4 -14 9 -18 6 -3 6 -17 1 -34 -7 -25 -4 -33 20 -56 16 -15 39 -47 52 -71
12 -24 26 -44 30 -44 4 0 5 -6 2 -14 -3 -8 -1 -17 5 -21 7 -4 11 5 11 23 0 17
-6 32 -15 36 -8 3 -15 14 -15 25 0 10 -8 22 -17 25 -12 5 -13 10 -6 17 14 14
93 -28 93 -47 0 -7 16 -28 35 -47 19 -19 35 -41 35 -49 0 -9 8 -15 17 -14 23
2 42 -72 22 -86 -12 -8 -11 -9 1 -5 21 5 25 70 5 104 -9 15 -14 20 -11 10 3
-11 2 -15 -4 -12 -6 3 -10 11 -10 16 0 15 -26 39 -34 31 -4 -3 -9 4 -13 16 -3
12 -13 22 -22 23 -11 0 -12 2 -3 6 20 8 79 -24 101 -55 21 -29 30 -56 35 -107
2 -16 4 -34 5 -38 0 -5 5 -6 10 -2 12 7 25 -31 16 -45 -4 -6 -11 -7 -17 -4 -7
4 -8 2 -4 -5 4 -6 0 -14 -8 -17 -9 -3 -16 -14 -16 -23 1 -12 7 -9 23 12 13 15
26 27 29 27 7 0 -2 -40 -12 -55 -13 -19 -20 -46 -10 -40 6 3 10 13 10 21 0 8
4 13 9 9 15 -9 26 -106 22 -209 -1 -30 -4 -37 -17 -32 -8 3 -12 2 -9 -4 3 -6
4 -10 1 -10 -2 0 -12 -3 -20 -6 -12 -5 -15 -2 -10 9 3 9 0 40 -6 69 -7 29 -14
80 -15 114 -1 34 -5 67 -9 73 -4 7 -5 18 -2 26 3 8 2 15 -3 15 -5 0 -14 13
-21 29 -6 16 -19 32 -27 35 -9 4 -13 13 -9 24 5 15 5 15 -6 1 -9 -11 -26 -14
-58 -12 -67 5 -85 5 -201 -1 -79 -4 -112 -2 -132 9 -18 9 -29 10 -33 3 -4 -5
-20 -7 -38 -4 -56 11 -91 13 -101 5 -6 -4 -33 -7 -59 -6 -40 2 -52 -2 -67 -21
-10 -13 -22 -21 -26 -19 -5 3 -9 -2 -10 -11 -4 -77 -17 -141 -27 -135 -7 5 -7
2 1 -8 12 -15 6 -69 -8 -69 -5 0 -8 -3 -8 -7 5 -31 -3 -73 -12 -67 -8 5 -8 1
0 -13 6 -11 7 -23 4 -27 -4 -3 2 -13 13 -21 17 -13 17 -14 2 -15 -10 0 -18 4
-18 9 0 5 -8 17 -17 27 -18 17 -31 119 -19 150 6 16 8 15 22 -2 13 -17 13 -15
-1 13 -17 36 -21 138 -5 148 6 4 8 11 5 16 -4 5 -1 9 6 9 7 0 9 3 6 7 -4 3 -1
16 7 27 7 12 17 36 20 53 4 18 18 43 32 55 13 13 24 29 24 36 0 37 76 104 90
82 3 -5 21 5 40 21 34 29 23 30 -30 2 -25 -12 -44 -8 -22 6 8 5 2 13 -18 25
-38 22 -66 72 -51 90 6 7 8 15 5 18 -11 11 24 76 60 110 46 45 77 53 119 33
l32 -16 -28 25 c-19 17 -23 26 -13 26 18 0 69 -47 85 -78 7 -12 16 -20 21 -17
4 3 6 -5 4 -17 -2 -13 -2 -17 2 -10 3 6 10 9 16 6 5 -4 8 9 6 32 -2 21 -9 39
-17 42 -9 3 -11 0 -6 -9 5 -8 -4 -3 -18 10 -15 14 -27 21 -27 17 0 -5 -7 -3
-15 4 -21 18 -9 30 29 30 21 0 40 -8 54 -22z m-38 -575 c68 -6 92 -7 261 -3
83 1 144 -2 156 -9 28 -14 41 -53 48 -144 3 -42 10 -89 15 -103 6 -14 10 -44
10 -66 l0 -41 -22 21 c-13 11 -36 24 -53 28 -16 4 -42 16 -57 27 -34 25 -111
32 -163 15 -41 -14 -57 -45 -20 -40 11 1 49 5 85 7 46 3 56 2 35 -4 -85 -24
-141 -33 -202 -32 -74 0 -243 30 -243 43 0 5 10 6 23 4 12 -3 41 -7 64 -10 23
-3 49 -9 58 -12 13 -5 16 -2 13 17 -2 17 -12 25 -38 32 -52 13 -136 4 -168
-20 -15 -11 -42 -24 -60 -28 -18 -4 -38 -15 -45 -26 -6 -10 -15 -19 -19 -19
-12 0 -10 65 3 97 6 15 17 73 25 127 16 123 28 138 117 147 34 4 76 4 92 2 17
-3 55 -8 85 -10z m-26 -366 c15 -10 31 -29 36 -43 11 -27 32 -31 50 -9 7 8 18
15 25 15 7 0 18 -7 25 -15 19 -23 37 -18 52 12 18 38 48 50 143 58 93 8 155
-9 155 -43 0 -11 7 -25 15 -32 17 -15 20 -93 5 -155 -6 -22 -19 -81 -29 -132
-14 -65 -29 -105 -50 -137 -43 -62 -142 -148 -163 -142 -10 2 -20 0 -23 -4 -5
-8 -60 15 -75 30 -8 9 -110 6 -110 -3 0 -5 -6 -7 -12 -4 -7 2 -24 -4 -37 -15
-16 -12 -28 -15 -36 -8 -6 5 -15 7 -18 4 -16 -17 -152 109 -185 172 -14 27
-72 315 -72 359 0 24 5 35 15 35 8 0 17 11 21 25 12 47 39 57 145 53 70 -3
103 -8 123 -21z m-354 -12 c0 -8 4 -15 9 -15 5 0 11 -9 14 -20 7 -28 -7 -25
-27 5 -9 14 -22 23 -27 19 -7 -4 -4 -14 9 -26 18 -19 19 -22 4 -47 -14 -24
-13 -31 2 -71 l16 -45 -5 47 c-5 48 1 78 15 78 4 0 10 -26 13 -57 3 -32 9 -69
13 -83 7 -25 7 -25 -14 -6 -13 11 -22 14 -22 7 0 -6 11 -17 25 -23 14 -6 25
-20 25 -30 0 -17 -1 -18 -25 -2 -45 29 -77 98 -83 173 -3 42 0 76 7 89 13 25
51 30 51 7z m518 1 c2 -4 1 -12 -1 -19 -4 -9 -7 -9 -18 1 -16 14 -69 16 -69 2
0 -5 -4 -10 -10 -10 -5 0 -10 8 -10 18 0 14 9 17 52 16 29 -1 54 -5 56 -8z
m462 -17 c30 -54 -3 -182 -61 -240 -23 -23 -43 -38 -46 -36 -10 11 7 42 28 52
38 17 64 136 37 163 -9 9 -8 16 5 30 29 32 19 37 -13 7 -22 -21 -30 -25 -30
-13 0 23 42 67 57 61 8 -3 18 -14 23 -24z m-75 11 c-3 -5 -13 -10 -21 -10 -8
0 -14 5 -14 10 0 6 9 10 21 10 11 0 17 -4 14 -10z m25 -118 c0 -52 -19 -112
-35 -112 -11 0 -11 8 1 53 7 28 14 65 14 80 0 16 4 26 10 22 6 -3 10 -23 10
-43z m-442 -498 c7 -2 10 1 7 6 -9 15 1 12 37 -9 17 -11 35 -18 40 -15 4 3 8
1 8 -3 0 -5 -16 -17 -35 -27 -27 -15 -48 -18 -98 -14 -35 3 -74 11 -87 18 -24
13 -23 13 21 36 40 21 62 22 107 8z m-134 -69 c66 -34 145 -34 210 -1 41 21
52 22 89 13 23 -5 46 -13 51 -18 24 -22 -99 -151 -187 -196 l-49 -24 -52 25
c-62 30 -139 104 -167 159 -11 21 -19 40 -17 42 2 2 19 8 38 13 19 6 35 11 35
11 0 1 22 -10 49 -24z m-130 -49 c44 -90 179 -196 249 -196 62 0 241 150 254
213 7 33 4 33 143 -2 47 -12 94 -23 106 -26 24 -5 74 -42 74 -55 0 -8 -41 -35
-117 -77 -24 -13 -43 -21 -43 -17 0 3 -10 0 -22 -8 -40 -26 -152 -60 -244 -75
-63 -10 -243 -10 -314 0 -125 17 -380 113 -365 138 3 5 0 7 -7 4 -7 -3 -26 5
-42 18 l-29 24 34 25 c19 15 54 29 80 32 26 3 82 17 125 30 44 13 82 24 85 25
4 0 19 -23 33 -53z"/>
<path d="M1400 2469 c0 -5 5 -7 10 -4 6 3 10 8 10 11 0 2 -4 4 -10 4 -5 0 -10
-5 -10 -11z"/>
<path d="M1521 2420 c0 -43 2 -51 10 -37 7 12 8 30 1 55 -10 37 -10 37 -11
-18z"/>
<path d="M1280 2433 c47 -20 106 -73 102 -92 -2 -13 -1 -13 6 -2 25 36 -54
112 -115 110 l-28 -1 35 -15z"/>
<path d="M1204 2378 c-3 -4 8 -8 25 -8 16 0 41 -4 55 -10 31 -12 34 -5 5 11
-26 14 -78 18 -85 7z"/>
<path d="M1223 2333 c9 -2 23 -2 30 0 6 3 -1 5 -18 5 -16 0 -22 -2 -12 -5z"/>
<path d="M1533 2325 c0 -8 4 -12 9 -9 5 3 6 10 3 15 -9 13 -12 11 -12 -6z"/>
<path d="M1178 2303 c7 -3 16 -2 19 1 4 3 -2 6 -13 5 -11 0 -14 -3 -6 -6z"/>
<path d="M1378 2283 c6 -2 18 -2 25 0 6 3 1 5 -13 5 -14 0 -19 -2 -12 -5z"/>
<path d="M1378 2243 c7 -3 16 -2 19 1 4 3 -2 6 -13 5 -11 0 -14 -3 -6 -6z"/>
<path d="M1550 2223 c0 -4 13 -20 29 -36 35 -34 76 -111 67 -126 -4 -6 -2 -11
3 -11 30 0 -7 114 -41 128 -4 2 -8 10 -8 18 0 9 -4 13 -9 9 -5 -3 -17 2 -25
11 -9 8 -16 12 -16 7z"/>
<path d="M1440 2189 c0 -5 4 -9 8 -9 9 0 32 -102 32 -143 0 -15 5 -27 11 -27
7 0 10 18 7 50 -4 39 -2 47 8 39 9 -8 10 -2 4 24 -9 44 -19 59 -31 51 -5 -3
-8 0 -7 6 2 7 -5 14 -14 15 -10 2 -18 -1 -18 -6z"/>
<path d="M1522 2178 c6 -13 15 -54 18 -93 l7 -70 2 73 c1 52 5 72 13 70 6 -2
14 -10 16 -18 3 -7 0 -10 -7 -6 -6 4 -11 3 -11 -2 0 -5 9 -12 20 -15 12 -3 20
0 20 7 0 16 -32 46 -49 46 -6 0 -14 7 -17 15 -4 8 -10 15 -15 15 -6 0 -4 -10
3 -22z"/>
<path d="M1280 2177 c-20 -16 -44 -47 -37 -47 7 0 57 49 57 55 0 7 -3 6 -20
-8z"/>
<path d="M1346 2164 c-9 -23 -7 -107 3 -122 15 -24 20 10 10 63 -6 33 -5 52 2
62 7 8 8 13 1 13 -5 0 -13 -7 -16 -16z"/>
<path d="M1303 2150 c-6 -14 -7 -29 -2 -34 13 -15 21 -1 17 31 l-4 28 -11 -25z"/>
<path d="M1407 2136 c3 -17 12 -38 19 -47 8 -8 14 -26 15 -40 0 -13 4 -33 9
-44 7 -16 9 -13 9 16 1 20 -3 49 -8 65 -5 16 -12 41 -15 55 -8 39 -36 34 -29
-5z"/>
<path d="M1175 2115 c-31 -30 -32 -53 -3 -51 14 1 22 8 23 21 2 11 6 28 10 38
10 24 -2 21 -30 -8z"/>
<path d="M1735 2105 c4 -16 8 -36 8 -42 0 -7 4 -13 9 -13 14 0 8 44 -9 65 -15
19 -15 19 -8 -10z"/>
<path d="M1226 2103 c-6 -14 -5 -15 5 -6 7 7 10 15 7 18 -3 3 -9 -2 -12 -12z"/>
<path d="M1386 2075 c3 -27 11 -56 19 -63 10 -11 10 -3 -1 40 -20 74 -25 81
-18 23z"/>
<path d="M1575 2085 c0 -13 3 -21 8 -18 4 2 7 10 7 18 0 8 -3 16 -7 18 -5 3
-8 -5 -8 -18z"/>
<path d="M1290 2084 c0 -8 5 -12 10 -9 6 3 10 -2 10 -11 0 -10 3 -15 6 -11 8
8 -5 47 -17 47 -5 0 -9 -7 -9 -16z"/>
<path d="M1682 2040 c0 -14 2 -19 5 -12 2 6 2 18 0 25 -3 6 -5 1 -5 -13z"/>
<path d="M1168 2043 c7 -3 16 -2 19 1 4 3 -2 6 -13 5 -11 0 -14 -3 -6 -6z"/>
<path d="M1710 2036 c0 -2 7 -7 16 -10 8 -3 12 -2 9 4 -6 10 -25 14 -25 6z"/>
<path d="M1190 2021 c0 -6 4 -13 10 -16 6 -3 7 1 4 9 -7 18 -14 21 -14 7z"/>
<path d="M1795 2010 c3 -5 8 -10 11 -10 2 0 4 5 4 10 0 6 -5 10 -11 10 -5 0
-7 -4 -4 -10z"/>
<path d="M1093 1960 c2 -13 9 -26 16 -28 10 -3 10 0 1 19 -18 34 -21 36 -17 9z"/>
<path d="M1072 1870 c0 -19 2 -27 5 -17 2 9 2 25 0 35 -3 9 -5 1 -5 -18z"/>
<path d="M1039 1857 c-3 -20 -2 -42 2 -48 11 -18 15 3 9 46 l-6 40 -5 -38z"/>
<path d="M1045 1780 c3 -5 8 -10 11 -10 2 0 4 5 4 10 0 6 -5 10 -11 10 -5 0
-7 -4 -4 -10z"/>
<path d="M1905 1730 c-3 -5 -1 -10 4 -10 6 0 11 5 11 10 0 6 -2 10 -4 10 -3 0
-8 -4 -11 -10z"/>
<path d="M1233 1529 c-63 -31 -71 -45 -43 -74 20 -22 31 -24 92 -23 37 0 71
-2 74 -5 7 -7 64 20 64 29 0 18 -48 68 -76 80 -45 19 -62 18 -111 -7z m81 -8
c3 -5 -1 -14 -8 -20 -16 -13 -32 2 -21 19 8 12 22 13 29 1z m-48 -36 c0 -30
-3 -35 -22 -35 -19 0 -53 26 -43 34 17 12 54 36 59 36 3 0 5 -16 6 -35z m116
-4 c21 -17 7 -41 -23 -41 -16 0 -18 5 -13 25 4 15 1 32 -7 43 -13 16 -12 16 6
2 11 -8 28 -21 37 -29z"/>
<path d="M1633 1539 c-29 -8 -83 -59 -83 -79 0 -25 36 -35 119 -32 71 3 90 7
108 25 22 20 22 21 6 40 -37 40 -100 60 -150 46z m29 -41 c-9 -9 -15 -9 -24 0
-10 10 -10 15 2 22 9 6 19 5 24 0 7 -7 6 -14 -2 -22z m77 1 c20 -16 23 -24 14
-37 -5 -9 -19 -18 -29 -20 -16 -2 -19 3 -19 38 0 22 2 40 5 40 3 -1 16 -10 29
-21z m-122 -9 c-3 -11 -1 -23 4 -26 15 -9 10 -24 -8 -24 -10 0 -25 5 -33 10
-12 7 -11 13 10 34 28 31 34 32 27 6z"/>
<path d="M1534 1368 c8 -47 26 -76 26 -41 0 37 -12 83 -23 83 -6 0 -7 -16 -3
-42z"/>
<path d="M1348 1349 c-42 -31 -115 -36 -172 -11 -53 24 -55 13 -2 -12 60 -29
139 -19 194 24 33 26 15 25 -20 -1z"/>
<path d="M1618 1338 c19 -20 33 -23 97 -23 48 0 79 5 87 13 11 11 9 12 -12 4
-48 -17 -113 -14 -155 8 l-40 20 23 -22z"/>
<path d="M1820 1349 c0 -5 5 -7 10 -4 6 3 10 8 10 11 0 2 -4 4 -10 4 -5 0 -10
-5 -10 -11z"/>
<path d="M1386 1268 c-13 -29 -3 -53 26 -56 15 -2 32 -10 38 -18 16 -18 40
-17 64 1 11 8 30 15 42 15 25 0 38 27 28 54 -10 26 -25 19 -18 -9 5 -21 3 -25
-15 -25 -12 0 -33 -7 -47 -16 -23 -15 -26 -15 -43 0 -9 9 -27 16 -39 16 -15 0
-22 7 -24 28 -3 22 -6 24 -12 10z"/>
<path d="M1270 1141 c0 -6 4 -11 8 -11 5 0 22 -20 39 -43 53 -76 163 -109 246
-73 38 16 141 122 127 131 -5 3 -27 1 -47 -4 -92 -26 -204 -24 -340 5 -22 4
-33 3 -33 -5z m210 -36 c47 0 102 3 123 7 41 8 49 -5 15 -24 -15 -9 -63 -13
-138 -13 -75 0 -123 4 -137 13 -36 20 -28 34 15 25 20 -4 75 -8 122 -8z m72
-67 c-8 -8 -62 -13 -107 -10 -21 2 -26 5 -17 11 16 10 134 9 124 -1z"/>
<path d="M1380 706 c25 -15 45 -12 35 5 -4 5 -18 9 -33 9 l-27 -1 25 -13z"/>
<path d="M1541 711 c-25 -16 6 -21 45 -7 l39 15 -35 0 c-19 0 -41 -3 -49 -8z"/>
</g>
</svg>
